<svg width="251" height="252" viewBox="0 0 251 252" fill="none" xmlns="http://www.w3.org/2000/svg">
<g clip-path="url(#clip0_381_1195)">
<path d="M125.515 252.026C91.9897 252.026 60.4677 238.917 36.7621 215.117C13.0566 191.317 0 159.673 0 126.011C0 92.3526 13.0566 60.7049 36.7621 36.9049C60.4677 13.1049 91.9897 -0.00366211 125.515 -0.00366211C133.806 -0.00366211 142.102 0.815556 150.167 2.42665C158.757 4.14821 164.332 12.5318 162.622 21.1571C160.911 29.7813 152.56 35.3781 143.97 33.6609C137.938 32.4534 131.73 31.842 125.515 31.842C73.7955 31.842 31.7192 74.0859 31.7192 126.011C31.7192 177.936 73.7955 220.18 125.515 220.18C177.234 220.18 219.31 177.936 219.31 126.011C219.31 115.891 217.723 105.941 214.598 96.4377C211.85 88.0881 216.364 79.0854 224.681 76.3259C232.996 73.563 241.968 78.0956 244.712 86.4452C248.904 99.1787 251.029 112.489 251.029 126.011C251.029 159.673 237.973 191.317 214.267 215.117C190.562 238.917 159.043 252.026 125.515 252.026Z" fill="#8FCF99"/>
<path d="M70.3747 176.598V103.465C66.9649 103.359 60.9884 102.84 58.9795 102.48V84.432C67.0531 83.9223 74.2846 80.0931 78.5181 75.4282H98.0403V176.598H70.3747Z" fill="#8FCF99"/>
<path d="M143.009 102.695C143.009 110.016 146.31 114.404 152.93 114.404C159.799 114.404 162.847 110.214 162.847 102.985C162.847 95.6112 159.887 91.4451 152.877 91.4451C146.578 91.4451 143.009 95.1092 143.009 102.695ZM164.441 146.416C164.441 137.427 160.654 132.268 152.839 132.268C144.53 132.268 141.433 137.915 141.433 146.519C141.433 155.211 145.709 160.383 153.18 160.383C160.937 160.383 164.441 155.317 164.441 146.416ZM113.761 146.85C113.761 134.35 121.45 126.654 129.066 123.167C121.011 119.033 117.041 110.988 117.041 101.907C117.041 86.9542 127.281 73.6334 153.011 73.6334C176.876 73.6334 188.915 85.7565 188.915 101.575C188.915 112.126 183.678 118.736 176.39 121.994C184.185 125.068 192.053 133.357 192.053 146.356C192.053 164.513 180.954 178.388 151.607 178.388C124.878 178.388 113.761 163.1 113.761 146.85Z" fill="#8FCF99"/>
<path d="M195.524 12.2784C200.443 12.2784 204.431 16.2848 204.431 21.2242V69.2989C204.431 74.2383 200.443 78.2447 195.524 78.2447C190.604 78.2447 186.612 74.2383 186.612 69.2989V21.2242C186.612 16.2848 190.604 12.2784 195.524 12.2784Z" fill="#8FCF99"/>
<path d="M162.672 45.2616C162.672 40.3222 166.659 36.3191 171.579 36.3191H219.465C224.385 36.3191 228.373 40.3222 228.373 45.2616C228.373 50.201 224.385 54.2074 219.465 54.2074H171.579C166.659 54.2074 162.672 50.201 162.672 45.2616Z" fill="#8FCF99"/>
</g>
<defs>
<clipPath id="clip0_381_1195">
<rect width="251" height="252" fill="white"/>
</clipPath>
</defs>
</svg>
