<svg width="86" height="84" viewBox="0 0 86 84" fill="none" xmlns="http://www.w3.org/2000/svg">
<path d="M45.3027 51.1558L50.5993 42.1185C50.8047 41.7627 50.8663 41.2452 50.7661 40.871C50.6659 40.4971 50.3536 40.0794 49.9979 39.874C49.1678 39.395 48.2325 39.6457 47.7535 40.4754L41.6103 50.842C40.7617 50.6684 40.007 50.4696 39.3206 50.1524C38.0662 49.5865 36.9489 48.7834 35.9687 47.7429L41.7193 37.7822C41.9247 37.4265 41.9863 36.9089 41.8861 36.5347C41.7859 36.1608 41.4736 35.7431 41.1179 35.5378C40.2878 35.0588 39.3778 35.4026 38.8734 36.1391L33.8758 44.7953C33.0506 43.2123 32.3625 41.3921 31.9045 39.3096C31.5787 38.0938 30.343 37.2221 29.0086 37.4796C27.6743 37.7368 26.9211 39.0411 27.1786 40.3755C28.8025 47.5582 32.1947 52.3625 37.3987 54.5765C43.5262 57.2447 51.539 56.1001 60.1709 51.2813C70.8721 45.2066 76.5657 49.9956 76.8278 50.2261C77.7582 51.0793 79.3548 51.0525 80.183 50.0288C80.7123 49.3856 80.9794 48.5123 80.779 47.7642C80.6536 47.2964 80.4597 46.9474 80.079 46.6487C79.6982 46.3497 71.6631 39.181 57.7274 47.0245C53.3086 49.612 48.9634 50.9766 45.3027 51.1558Z" fill="#FAFAFB"/>
<path d="M9.02191 33.2125C7.92964 32.5027 6.40824 32.8104 5.69849 33.9026C4.98902 34.9948 5.29629 36.516 6.38856 37.2258C6.86299 37.4997 17.2111 43.9485 30.4036 35.2014C35.8626 31.6338 41.387 30.5542 45.998 32.426C50.1599 34.1175 53.2332 38.1051 54.5746 43.86C54.9254 45.1694 56.1363 45.9474 57.4706 45.6903C58.78 45.3394 59.558 44.1285 59.3008 42.7943C59.2257 42.5137 59.1254 42.1395 59.0502 41.859C57.221 35.0321 53.3108 30.1659 47.8011 27.9335C41.8424 25.5207 34.4409 26.7022 27.7294 31.2068C17.2538 38.1234 9.37764 33.4179 9.02191 33.2125Z" fill="#FAFAFB"/>
<path d="M18.105 14.7409C17.9565 15.6831 18.4875 16.5429 19.4295 16.6916C19.4295 16.6916 20.8207 17.0205 22.4876 18.3781L16.3461 30.2474C15.9604 31.0525 16.236 32.0811 17.0411 32.4667C17.8461 32.8524 18.8747 32.5768 19.2605 31.772L24.8792 20.9446C25.8913 22.4776 26.8168 24.4348 27.4499 27.1721C27.6754 28.0138 28.5306 28.5864 29.3723 28.3609C30.2139 28.1353 30.7868 27.2801 30.5613 26.4384C30.4861 26.1579 30.386 25.784 30.3108 25.5034C27.5292 15.1226 20.3863 13.5282 20.0805 13.5102C19.1386 13.3615 18.2788 13.8926 18.105 14.7409Z" fill="#FAFAFB"/>
<path d="M71.0983 51.661C70.9981 51.2871 70.6858 50.8694 70.3301 50.664C69.525 50.2784 68.5897 50.529 68.0856 51.2654L61.7938 62.574C60.663 60.9724 59.7128 58.9218 58.9609 56.116C58.7354 55.2743 57.7866 54.7268 56.945 54.9523C56.1033 55.1778 55.5557 56.1263 55.7812 56.968C56.9841 61.4571 58.8897 64.4546 60.732 66.4668C63.4111 69.3574 66.0564 70.2523 66.2685 70.2959C67.1421 70.5628 68.0019 70.0318 68.2692 69.1584C68.381 68.8277 68.3057 68.5469 68.2306 68.2663C68.0802 67.7052 67.6744 67.3129 67.1317 67.1576C67.1317 67.1576 65.7155 66.7353 63.9984 65.1906L70.8128 52.8402C71.1118 52.4594 71.1985 52.0352 71.0983 51.661Z" fill="#FAFAFB"/>
</svg>
