<svg width="250" height="250" viewBox="0 0 250 250" fill="none" xmlns="http://www.w3.org/2000/svg">
<g clip-path="url(#clip0_381_1202)">
<path d="M249.991 124.993C249.991 194.029 194.026 249.993 124.992 249.993C55.9568 249.993 -0.0078125 194.029 -0.0078125 124.993C-0.0078125 55.9589 55.9568 -0.00683594 124.992 -0.00683594C194.026 -0.00683594 249.991 55.9589 249.991 124.993Z" fill="#8FCF99"/>
<path d="M167.865 165.02C172.263 150.704 214.533 127.459 214.533 127.459C214.533 127.459 204.306 123.09 203.15 119.872C200.607 112.781 211.876 91.035 211.876 91.035C211.876 91.035 190.307 99.7199 183.799 96.7273C180.347 95.1388 176.401 83.4482 176.401 83.4482C176.401 83.4482 159.3 108.648 152.311 104.695C140.39 97.9545 162.174 50.818 162.174 50.818C162.174 50.818 147.241 62.96 142.822 59.9478C142.816 59.9435 142.824 59.9239 142.824 59.9239L125.154 27.6768L124.993 27.9806L124.831 27.6768L107.161 59.9239C107.161 59.9239 107.166 59.9435 107.163 59.9478C102.743 62.96 87.811 50.818 87.811 50.818C87.811 50.818 109.595 97.9545 97.6753 104.695C90.6853 108.648 73.5835 83.4482 73.5835 83.4482C73.5835 83.4482 69.6371 95.1388 66.1845 96.7273C59.6784 99.7199 38.1083 91.035 38.1083 91.035C38.1083 91.035 49.3778 112.781 46.8355 119.872C45.6799 123.09 35.4531 127.459 35.4531 127.459C35.4531 127.459 77.722 150.704 82.1198 165.02C83.5467 169.667 76.4286 183.611 76.4286 183.611C76.4286 183.611 108.631 171.597 116.535 177.928C125.221 184.889 120.06 222.309 120.06 222.309H129.925C129.925 222.309 124.764 184.889 133.45 177.928C141.354 171.597 173.556 183.611 173.556 183.611C173.556 183.611 166.438 169.667 167.865 165.02Z" fill="white"/>
</g>
<defs>
<clipPath id="clip0_381_1202">
<rect width="250" height="250" fill="white"/>
</clipPath>
</defs>
</svg>
