<svg width="250" height="250" viewBox="0 0 250 250" fill="none" xmlns="http://www.w3.org/2000/svg">
<path d="M228.335 125C228.335 182.309 181.877 228.768 124.566 228.768C67.2586 228.768 20.8008 182.309 20.8008 125C20.8008 67.6916 67.2586 21.2349 124.566 21.2349C181.877 21.2349 228.335 67.6916 228.335 125Z" fill="white"/>
<path d="M124.78 214.61C75.2913 214.61 35.1705 174.489 35.1705 125C35.1705 75.5081 75.2913 35.3905 124.78 35.3905C174.272 35.3905 214.39 75.5081 214.39 125C214.39 174.489 174.272 214.61 124.78 214.61ZM124.78 0.221069C55.8678 0.221069 0 56.0857 0 125C0 193.912 55.8678 249.78 124.78 249.78C193.694 249.78 249.559 193.912 249.559 125C249.559 56.0857 193.694 0.221069 124.78 0.221069Z" fill="#8FCF99"/>
<path d="M72.0057 155.668L51.0938 127.966C50.5901 127.228 50.5587 126.254 51.0093 125.451C51.4957 124.581 52.4565 124.065 53.4304 124.167C57.8305 124.618 62.0952 126.356 65.5983 129.375L83.1576 145.956L105.126 157.666C106.072 158.318 107.174 158.734 108.334 158.873C117.919 160.037 136.051 158.712 138.947 158.485C139.179 158.468 139.375 158.291 139.424 158.061L139.429 157.996C139.446 157.71 139.206 157.463 138.908 157.495C135.584 157.778 119.947 159.018 108.979 157.957C107.731 157.831 106.552 157.388 105.539 156.695L88.0321 144.622C87.8989 144.443 87.5133 143.967 87.3898 143.796C85.0413 140.578 86.7604 135.897 90.6936 134.769C93.197 134.059 95.8271 134.146 98.2167 135.023L116.18 141.58C119.579 142.544 123.178 142.74 126.723 142.15L158.005 136.964C166.318 135.586 174.769 136.231 182.632 138.846C186.119 140.004 189.422 141.605 192.451 143.595C195.49 145.58 198.256 147.954 200.694 150.68L211.576 162.854L190.03 190.449L177.615 175.983C175.217 173.138 171.613 171.568 167.817 171.736L117.1 177.521C115.647 177.685 114.185 177.642 112.76 177.393C94.4611 174.124 79.7497 161.684 74.6748 158.281C73.6338 157.579 72.7304 156.698 72.0057 155.668Z" fill="#8FCF99"/>
<path d="M143.796 62.0402C148.017 67.5809 142.929 79.1217 117.11 98.7867C91.2891 118.452 80.8771 119.285 76.6568 113.745C72.4354 108.202 76.0047 98.3849 101.826 78.7198C127.645 59.0515 139.575 56.4972 143.796 62.0402Z" fill="#8FCF99"/>
<path d="M79.5889 114.028L64.7204 125.351L62.2939 122.164L77.1624 110.841L79.5889 114.028Z" fill="#8FCF99"/>
<path d="M122.606 87.8482C114.582 95.2998 105.916 101.903 96.6004 107.654C94.292 109.081 91.2676 108.516 89.6113 106.344L87.2098 103.189C85.5481 101.007 85.8146 97.9321 87.8197 96.0895C95.8183 88.73 104.439 82.0757 113.808 76.2684C116.108 74.8429 119.127 75.4192 120.779 77.5889L123.198 80.7628C124.854 82.9379 124.593 86.0013 122.606 87.8482Z" fill="white"/>
</svg>
