<?xml version="1.0" encoding="utf-8"?>
<!-- Generator: Adobe Illustrator 27.0.1, SVG Export Plug-In . SVG Version: 6.00 Build 0)  -->
<svg version="1.1" id="Layer_1" xmlns="http://www.w3.org/2000/svg" xmlns:xlink="http://www.w3.org/1999/xlink" x="0px" y="0px"
	 viewBox="0 0 612 792" style="enable-background:new 0 0 612 792;" xml:space="preserve">
<style type="text/css">
	.st0{fill:#414042;}
	.st1{fill-rule:evenodd;clip-rule:evenodd;fill:#26ABE2;}
	.st2{fill-rule:evenodd;clip-rule:evenodd;fill:#F37A21;}
	.st3{fill:#7DCDEE;}
	.st4{fill:#F5954D;}
	.st5{fill:#51BCE8;}
	.st6{fill:#F8AF7A;}
	.st7{fill-rule:evenodd;clip-rule:evenodd;fill:#FDBB10;}
	.st8{fill-rule:evenodd;clip-rule:evenodd;fill:#7FC343;}
	.st9{fill-rule:evenodd;clip-rule:evenodd;fill:#FAAB14;}
	.st10{fill-rule:evenodd;clip-rule:evenodd;fill:#E5C917;}
	.st11{fill-rule:evenodd;clip-rule:evenodd;fill:#CCC822;}
	.st12{fill-rule:evenodd;clip-rule:evenodd;fill:#99C538;}
	.st13{fill-rule:evenodd;clip-rule:evenodd;fill:#B2C62D;}
	.st14{fill-rule:evenodd;clip-rule:evenodd;fill:#F9A316;}
	.st15{fill-rule:evenodd;clip-rule:evenodd;fill:#F89A19;}
	.st16{fill-rule:evenodd;clip-rule:evenodd;fill:#F58A1D;}
	.st17{fill-rule:evenodd;clip-rule:evenodd;fill:#87C96E;}
	.st18{fill-rule:evenodd;clip-rule:evenodd;fill:#9FDBEE;}
	.st19{fill-rule:evenodd;clip-rule:evenodd;fill:#97D5C3;}
	.st20{fill-rule:evenodd;clip-rule:evenodd;fill:#87D1EC;}
	.st21{fill-rule:evenodd;clip-rule:evenodd;fill:#56BEE7;}
	.st22{fill-rule:evenodd;clip-rule:evenodd;fill:#6FC8E9;}
	.st23{fill-rule:evenodd;clip-rule:evenodd;fill:#3EB5E4;}
	.st24{fill-rule:evenodd;clip-rule:evenodd;fill:#8FCF99;}
	.st25{fill:#FAB545;}
	.st26{fill:#F9AE47;}
	.st27{fill:#FBBC43;}
	.st28{fill:#D6D34E;}
	.st29{fill:#FDC940;}
	.st30{fill:#EAD445;}
	.st31{fill:#F7A14A;}
	.st32{fill:#B2E2F1;}
	.st33{fill:#9FDAF0;}
	.st34{fill:#8CD3ED;}
	.st35{fill:#65C4E9;}
	.st36{fill:#ACDDCF;}
	.st37{fill:#9FD48B;}
	.st38{fill:#99CF69;}
	.st39{fill:#ADD160;}
	.st40{fill:#C1D157;}
	.st41{fill:#A5D9AD;}
	.st42{fill:#78CBEC;}
	.st43{fill:#BCE2C2;}
	.st44{fill:#C1E6DB;}
	.st45{fill:#B2DB8E;}
	.st46{fill:#C5E9F5;}
	.st47{fill:#B7DFA8;}
	.st48{fill:#C2DC88;}
	.st49{fill:#8BD3EF;}
	.st50{fill:#B7E3F4;}
	.st51{fill:#9AD8F1;}
	.st52{fill:#A9DEF2;}
	.st53{fill:#FBC275;}
	.st54{fill:#F9B977;}
	.st55{fill:#D1DD81;}
	.st56{fill:#FCCD72;}
	.st57{fill:#EFDF74;}
	.st58{fill:#E0DE7A;}
	.st59{fill:#FBC873;}
	.st60{fill:#FED670;}
</style>
<g>
	<g>
		<g>
			<path class="st0" d="M145.8,358.4h21.3c15.4,0,25.2,7.5,25.2,20.1c0,8.2-4.2,14.3-11.3,17.4c8.9,2.7,13.9,9.3,13.9,19
				c0,13.6-10,22.2-25.6,22.2h-23.6V358.4z M167.6,391.7c9.1,0,14.6-4.6,14.6-12.1c0-7.5-5.4-11.9-14.6-11.9h-11.5v24H167.6z
				 M169.2,427.7c9.7,0,15.3-4.5,15.3-13.3s-5.7-13.4-15.9-13.4h-12.5v26.7H169.2z"/>
			<path class="st0" d="M207.6,354.3h9.9v15.9h-9.9V354.3z M207.6,380.4h9.9V437h-9.9V380.4z"/>
			<path class="st0" d="M228.7,408.8c0-17.2,12.7-29.7,29.2-29.7c16.4,0,29.1,12.5,29.1,29.7c0,17.1-12.7,29.5-29.1,29.5
				C241.3,438.3,228.7,425.8,228.7,408.8z M257.9,429c10.9,0,19.1-8.5,19.1-20.2c0-11.9-8.2-20.4-19.1-20.4
				c-11,0-19.3,8.5-19.3,20.4C238.6,420.5,246.8,429,257.9,429z"/>
			<path class="st0" d="M299.4,358.4h21.5c15.9,0,25.8,8.9,25.8,23.3c0,14.1-10,23-25.8,23h-11.2V437h-10.3V358.4z M320.6,395.2
				c9.9,0,15.4-4.9,15.4-13.5c0-8.5-5.6-13.5-15.4-13.5h-10.9v27H320.6z"/>
			<path class="st0" d="M351.2,408.8c0-17.2,12.7-29.7,29.2-29.7c16.4,0,29.1,12.5,29.1,29.7c0,17.1-12.7,29.5-29.1,29.5
				C363.8,438.3,351.2,425.8,351.2,408.8z M380.4,429c10.9,0,19.1-8.5,19.1-20.2c0-11.9-8.2-20.4-19.1-20.4
				c-11,0-19.3,8.5-19.3,20.4C361.1,420.5,369.3,429,380.4,429z"/>
			<path class="st0" d="M437.8,380.4h6.3v9h-5.5c-6,0-8.5,2.3-8.5,8.7V437h-9.9v-38.8C420.3,385.9,426.1,380.4,437.8,380.4z"/>
			<path class="st0" d="M455.9,389.4H449v-9h6.9v-15.7l9.9-3.6v19.3h7.3v9h-7.3V437h-9.9V389.4z"/>
			<path class="st0" d="M479.3,408.7c0-17.3,12.5-29.4,28.1-29.4c8.5,0,16.1,3.6,20.1,9.7l0.1-8.6h8.9V437h-8.9l-0.1-8.6
				c-4,6-11.6,9.7-20.1,9.7C491.8,438.1,479.3,426,479.3,408.7z M508.4,428.8c10.4,0,18.9-7.2,18.9-20.2c0-13-8.5-20.3-18.9-20.3
				c-11,0-19.3,8.4-19.3,20.3C489.1,420.5,497.4,428.8,508.4,428.8z"/>
			<path class="st0" d="M550.9,354.3h9.9V437h-9.9V354.3z"/>
		</g>
	</g>
	<g>
		<rect x="125.4" y="358.3" class="st1" width="5.3" height="5.3"/>
		<rect x="118.8" y="358.3" class="st2" width="5.3" height="5.3"/>
		<polyline class="st3" points="117.4,358.3 112.1,358.3 112.1,363.6 117.4,363.6 117.4,358.3 		"/>
		<polyline class="st4" points="130.8,365 125.4,365 125.4,370.3 130.8,370.3 130.8,365 		"/>
		<polyline class="st5" points="124.1,365 118.8,365 118.8,370.3 124.1,370.3 124.1,365 		"/>
		<polyline class="st4" points="117.4,365 112.1,365 112.1,370.3 117.4,370.3 117.4,365 		"/>
		<rect x="125.4" y="371.6" class="st1" width="5.3" height="5.3"/>
		<polyline class="st6" points="124.1,371.6 118.8,371.6 118.8,377 124.1,377 124.1,371.6 		"/>
		<polyline class="st3" points="117.4,371.6 112.1,371.6 112.1,377 117.4,377 117.4,371.6 		"/>
		<rect x="92.1" y="358.3" class="st2" width="18.7" height="5.3"/>
		<polyline class="st4" points="110.8,365 92.1,365 92.1,370.3 110.8,370.3 110.8,365 		"/>
		<polyline class="st6" points="110.8,371.6 92.1,371.6 92.1,377 110.8,377 110.8,371.6 		"/>
		<path class="st7" d="M65.9,374.2l-3.8-3.8c-1.2,1.3-2.4,2.6-3.4,4.1l4.3,3.1C63.9,376.4,64.8,375.3,65.9,374.2z"/>
		<path class="st8" d="M56.7,404.8l-5.3,0.9c0.5,2.7,1.3,5.3,2.3,7.8l4.9-2.1C57.8,409.2,57.2,407,56.7,404.8z"/>
		<path class="st9" d="M69,371.3l-3.3-4.2c-0.9,0.7-1.8,1.5-2.6,2.3l3.8,3.8C67.5,372.6,68.2,372,69,371.3z"/>
		<path class="st10" d="M62.2,378.7l-4.3-3.1c-1,1.5-2,3.1-2.8,4.8l4.8,2.3C60.5,381.3,61.3,379.9,62.2,378.7z"/>
		<path class="st11" d="M59.3,383.8l-4.8-2.3c-0.9,1.8-1.6,3.8-2.1,5.7l5.2,1.4C57.9,387,58.5,385.4,59.3,383.8z"/>
		<path class="st12" d="M56.1,398.3c0-0.4,0-0.8,0-1.1l-5.3-0.3c0,0.5,0,0.9,0,1.4c0,2.1,0.2,4.1,0.5,6.1l5.3-0.9
			C56.2,401.8,56.1,400,56.1,398.3z"/>
		<path class="st13" d="M57.1,389.9l-5.2-1.4c-0.6,2.3-0.9,4.6-1.1,7l5.3,0.3C56.3,393.8,56.7,391.8,57.1,389.9z"/>
		<path class="st14" d="M72.7,368.7l-2.7-4.6c-1.1,0.7-2.3,1.5-3.3,2.3l3.3,4.2C70.9,369.9,71.8,369.2,72.7,368.7z"/>
		<path class="st15" d="M75.7,367.1l-2.2-4.8c-0.8,0.4-1.5,0.8-2.3,1.2l2.7,4.6C74.5,367.7,75.1,367.4,75.7,367.1z"/>
		<path class="st15" d="M79.1,365.6l-1.7-5.1c-0.9,0.3-1.8,0.7-2.7,1.1l2.2,4.8C77.6,366.2,78.3,365.9,79.1,365.6z"/>
		<path class="st16" d="M90.8,363.6v-5.3c-4.2,0-8.3,0.7-12.1,1.9l1.7,5.1C83.6,364.2,87.1,363.6,90.8,363.6z"/>
		<path class="st17" d="M59.2,412.6l-4.9,2.1c1.3,3,3,5.7,5,8.3l4.1-3.4C61.7,417.4,60.3,415.1,59.2,412.6z"/>
		<path class="st18" d="M80.1,431.3l-1.7,5c3.2,1,6.5,1.7,10,1.9l0.2-5.3C85.7,432.7,82.8,432.1,80.1,431.3z"/>
		<path class="st19" d="M71.5,427.1l-3.1,4.4c2.7,1.8,5.6,3.3,8.7,4.4l1.7-5C76.2,429.9,73.7,428.6,71.5,427.1z"/>
		<path class="st20" d="M90.8,433c-0.3,0-0.6,0-0.8,0l-0.2,5.3c0.4,0,0.7,0,1.1,0c3.3,0,6.5-0.4,9.6-1.2L99,432
			C96.4,432.6,93.6,433,90.8,433z"/>
		<path class="st21" d="M110.6,426.7l3,4.4c3.5-2.4,6.6-5.4,9.2-8.9l-4.3-3.1C116.3,422.1,113.6,424.6,110.6,426.7z"/>
		<path class="st22" d="M100.3,431.6l1.4,5.2c3.9-1.1,7.5-2.8,10.8-4.9l-3-4.4C106.7,429.3,103.6,430.7,100.3,431.6z"/>
		<path class="st23" d="M119.2,418.1l4.3,3.1c2.6-3.7,4.6-7.8,5.8-12.3l-5.2-1.3C123.1,411.4,121.5,414.9,119.2,418.1z"/>
		<path class="st24" d="M64.3,420.6l-4.1,3.4c2.1,2.5,4.5,4.8,7.2,6.7l3.1-4.4C68.1,424.7,66.1,422.7,64.3,420.6z"/>
		<path class="st25" d="M73.4,369.8c-0.9,0.5-1.8,1.1-2.6,1.8l3.3,4.2c0.6-0.5,1.3-0.9,2-1.4L73.4,369.8"/>
		<path class="st26" d="M76.3,368.3c-0.6,0.3-1.1,0.6-1.7,0.9l2.7,4.6c0.4-0.2,0.8-0.4,1.2-0.6L76.3,368.3"/>
		<path class="st27" d="M69.8,372.4c-0.7,0.6-1.4,1.2-2,1.8l3.8,3.8c0.5-0.5,1-0.9,1.6-1.4L69.8,372.4"/>
		<path class="st28" d="M60.5,384.4c-0.7,1.5-1.2,3-1.7,4.6l5.2,1.4c0.4-1.3,0.8-2.5,1.4-3.6L60.5,384.4"/>
		<path class="st29" d="M66.8,375.1c-1,1-1.9,2.1-2.7,3.2l4.3,3.1c0.7-0.9,1.4-1.7,2.2-2.5L66.8,375.1"/>
		<path class="st30" d="M63.3,379.4c-0.8,1.2-1.6,2.5-2.2,3.8l4.8,2.3c0.5-1,1.1-2,1.8-3L63.3,379.4"/>
		<path class="st31" d="M90.8,365c-3.5,0-6.9,0.5-10,1.5l1.7,5.1c2.6-0.8,5.4-1.3,8.3-1.3V365"/>
		<path class="st26" d="M79.5,366.9c-0.7,0.2-1.4,0.5-2,0.8l2.2,4.8c0.5-0.2,1-0.4,1.5-0.6L79.5,366.9"/>
		<path class="st32" d="M82.3,425l-1.7,5c2.6,0.8,5.3,1.4,8.1,1.5l0.2-5.3C86.6,426.1,84.4,425.6,82.3,425"/>
		<path class="st33" d="M97.3,425.5c-2.1,0.5-4.3,0.8-6.5,0.8c-0.2,0-0.4,0-0.6,0l-0.2,5.3c0.3,0,0.5,0,0.8,0c2.7,0,5.4-0.3,7.9-0.9
			L97.3,425.5"/>
		<path class="st34" d="M105.8,421.9c-2.2,1.4-4.6,2.5-7.2,3.3l1.4,5.2c3.2-0.9,6.1-2.3,8.8-4L105.8,421.9"/>
		<path class="st35" d="M117.7,405.9c-0.8,3-2.2,5.8-3.9,8.3l4.3,3.1c2.1-3,3.7-6.4,4.7-10.1L117.7,405.9"/>
		<path class="st36" d="M75.3,421.6l-3.1,4.4c2.2,1.5,4.5,2.7,7.1,3.6l1.7-5C79,423.8,77.1,422.8,75.3,421.6"/>
		<path class="st37" d="M65.3,409.9l-4.9,2.1c1.1,2.4,2.5,4.6,4.1,6.7l4.1-3.4C67.3,413.7,66.2,411.9,65.3,409.9"/>
		<path class="st38" d="M63.3,403.6l-5.3,0.9c0.4,2.2,1,4.3,1.8,6.3l4.9-2.1C64.1,407.1,63.6,405.4,63.3,403.6"/>
		<path class="st39" d="M57.5,397.2c0,0.4,0,0.7,0,1.1c0,1.7,0.1,3.3,0.4,4.9l5.3-0.9c-0.2-1.3-0.3-2.7-0.3-4c0-0.3,0-0.5,0-0.8
			L57.5,397.2"/>
		<path class="st40" d="M58.4,390.3c-0.4,1.8-0.7,3.7-0.9,5.6l5.3,0.3c0.1-1.5,0.4-3,0.7-4.5L58.4,390.3"/>
		<path class="st41" d="M69.4,416.4l-4.1,3.4c1.7,2,3.7,3.9,5.8,5.4l3.1-4.4C72.4,419.6,70.8,418.1,69.4,416.4"/>
		<path class="st42" d="M113.1,415.2c-1.7,2.3-3.8,4.3-6.2,5.9l3,4.4c2.9-2,5.4-4.5,7.5-7.2L113.1,415.2"/>
		<path class="st43" d="M74.6,412.2l-4.2,3.4c1.3,1.6,2.8,3,4.5,4.2l3.1-4.4C76.8,414.4,75.6,413.4,74.6,412.2"/>
		<path class="st44" d="M79.1,416.1l-3.1,4.4c1.7,1.1,3.5,2,5.4,2.8l1.7-5C81.8,417.7,80.4,417,79.1,416.1"/>
		<path class="st45" d="M69.9,402.5l-5.3,0.9c0.3,1.6,0.8,3.2,1.4,4.8l4.9-2.1C70.5,404.9,70.1,403.7,69.9,402.5"/>
		<path class="st46" d="M84.5,418.7l-1.7,5c2,0.6,4.1,1,6.2,1.2l0.2-5.3C87.6,419.4,86,419.1,84.5,418.7"/>
		<path class="st47" d="M71.4,407.3l-4.9,2.1c0.8,1.8,1.9,3.6,3.1,5.1l4.1-3.4C72.9,410,72.1,408.7,71.4,407.3"/>
		<path class="st48" d="M64.1,397.6c0,0.2,0,0.5,0,0.7c0,1.3,0.1,2.6,0.3,3.8l5.3-0.9c-0.1-1-0.2-1.9-0.2-2.9c0-0.1,0-0.3,0-0.4
			L64.1,397.6"/>
		<path class="st1" d="M125.4,398.3c0,2.7-0.3,5.4-0.9,8l5.2,1.3c0.4-1.8,0.7-3.6,0.9-5.5c0.1-1.3,0.2-2.5,0.2-3.8v-20h-5.3V398.3z"
			/>
		<path class="st5" d="M124.1,378.3h-5.3v20c0,2.2-0.2,4.3-0.7,6.3l5.2,1.3c0.3-1.2,0.5-2.5,0.7-3.8c0.1-1.3,0.2-2.5,0.2-3.8V378.3"
			/>
		<path class="st3" d="M112.1,378.3v20c0,1.6-0.2,3.2-0.5,4.7l5.2,1.3c0.2-0.7,0.3-1.4,0.4-2.2c0.2-1.3,0.3-2.5,0.3-3.8v-20H112.1z"
			/>
		<path class="st49" d="M111.3,404.2c-0.6,2.2-1.6,4.2-2.8,6l4.3,3.1c1.6-2.4,2.9-5,3.7-7.8L111.3,404.2"/>
		<path class="st50" d="M95.6,419.1c-1.5,0.4-3.2,0.6-4.8,0.6c-0.1,0-0.2,0-0.3,0l-0.2,5.3c0.2,0,0.3,0,0.5,0c2.1,0,4.2-0.3,6.2-0.7
			L95.6,419.1"/>
		<path class="st51" d="M107.7,411.3c-1.3,1.6-2.8,3.1-4.5,4.3l3,4.4c2.2-1.6,4.2-3.5,5.8-5.6L107.7,411.3"/>
		<path class="st52" d="M102.1,416.4c-1.6,1-3.4,1.8-5.2,2.4l1.4,5.2c2.4-0.7,4.7-1.8,6.8-3.1L102.1,416.4"/>
		<path class="st53" d="M79,374.3c-0.4,0.2-0.7,0.4-1.1,0.6l2.7,4.6c0.2-0.1,0.4-0.2,0.7-0.3L79,374.3"/>
		<path class="st53" d="M81.6,373.2c-0.5,0.2-0.9,0.4-1.4,0.6l2.2,4.8c0.3-0.1,0.6-0.2,0.9-0.3L81.6,373.2"/>
		<path class="st54" d="M90.8,371.6c-2.7,0-5.4,0.4-7.9,1.2l1.7,5.1c2-0.6,4-0.9,6.2-0.9V371.6"/>
		<path class="st55" d="M64.9,392c-0.3,1.4-0.6,2.8-0.7,4.2l5.3,0.3c0.1-1.1,0.3-2.1,0.5-3.1L64.9,392"/>
		<path class="st56" d="M73.9,377.7c-0.5,0.4-1,0.8-1.4,1.3l3.8,3.8c0.3-0.3,0.6-0.6,0.9-0.8L73.9,377.7"/>
		<path class="st57" d="M68.7,383.3c-0.6,0.9-1.2,1.8-1.7,2.8l4.8,2.3c0.4-0.7,0.8-1.4,1.2-2L68.7,383.3"/>
		<path class="st58" d="M66.5,387.3c-0.5,1.1-0.9,2.2-1.3,3.4l5.2,1.4c0.3-0.9,0.6-1.7,0.9-2.5L66.5,387.3"/>
		<path class="st59" d="M76.8,375.6c-0.6,0.4-1.3,0.8-1.9,1.3l3.3,4.2c0.4-0.3,0.8-0.6,1.3-0.9L76.8,375.6"/>
		<path class="st60" d="M71.5,379.9c-0.7,0.7-1.4,1.5-2,2.4l4.3,3.1c0.4-0.6,0.9-1.1,1.4-1.7L71.5,379.9"/>
	</g>
</g>
</svg>
