<svg version="1.1" id="Layer_1" xmlns="http://www.w3.org/2000/svg" xmlns:xlink="http://www.w3.org/1999/xlink" 
	 viewBox="264 352 84 84" xml:space="preserve">
<style type="text/css">
	.st0{fill-rule:evenodd;clip-rule:evenodd;fill:#26ABE2;}
	.st1{fill-rule:evenodd;clip-rule:evenodd;fill:#F37A21;}
	.st2{fill:#7DCDEE;}
	.st3{fill:#F5954D;}
	.st4{fill:#51BCE8;}
	.st5{fill:#F8AF7A;}
	.st6{fill-rule:evenodd;clip-rule:evenodd;fill:#FDBB10;}
	.st7{fill-rule:evenodd;clip-rule:evenodd;fill:#7FC343;}
	.st8{fill-rule:evenodd;clip-rule:evenodd;fill:#FAAB14;}
	.st9{fill-rule:evenodd;clip-rule:evenodd;fill:#E5C917;}
	.st10{fill-rule:evenodd;clip-rule:evenodd;fill:#CCC822;}
	.st11{fill-rule:evenodd;clip-rule:evenodd;fill:#99C538;}
	.st12{fill-rule:evenodd;clip-rule:evenodd;fill:#B2C62D;}
	.st13{fill-rule:evenodd;clip-rule:evenodd;fill:#F9A316;}
	.st14{fill-rule:evenodd;clip-rule:evenodd;fill:#F89A19;}
	.st15{fill-rule:evenodd;clip-rule:evenodd;fill:#F58A1D;}
	.st16{fill-rule:evenodd;clip-rule:evenodd;fill:#87C96E;}
	.st17{fill-rule:evenodd;clip-rule:evenodd;fill:#9FDBEE;}
	.st18{fill-rule:evenodd;clip-rule:evenodd;fill:#97D5C3;}
	.st19{fill-rule:evenodd;clip-rule:evenodd;fill:#87D1EC;}
	.st20{fill-rule:evenodd;clip-rule:evenodd;fill:#56BEE7;}
	.st21{fill-rule:evenodd;clip-rule:evenodd;fill:#6FC8E9;}
	.st22{fill-rule:evenodd;clip-rule:evenodd;fill:#3EB5E4;}
	.st23{fill-rule:evenodd;clip-rule:evenodd;fill:#8FCF99;}
	.st24{fill:#FAB545;}
	.st25{fill:#F9AE47;}
	.st26{fill:#FBBC43;}
	.st27{fill:#D6D34E;}
	.st28{fill:#FDC940;}
	.st29{fill:#EAD445;}
	.st30{fill:#F7A14A;}
	.st31{fill:#B2E2F1;}
	.st32{fill:#9FDAF0;}
	.st33{fill:#8CD3ED;}
	.st34{fill:#65C4E9;}
	.st35{fill:#ACDDCF;}
	.st36{fill:#9FD48B;}
	.st37{fill:#99CF69;}
	.st38{fill:#ADD160;}
	.st39{fill:#C1D157;}
	.st40{fill:#A5D9AD;}
	.st41{fill:#78CBEC;}
	.st42{fill:#BCE2C2;}
	.st43{fill:#C1E6DB;}
	.st44{fill:#B2DB8E;}
	.st45{fill:#C5E9F5;}
	.st46{fill:#B7DFA8;}
	.st47{fill:#C2DC88;}
	.st48{fill:#8BD3EF;}
	.st49{fill:#B7E3F4;}
	.st50{fill:#9AD8F1;}
	.st51{fill:#A9DEF2;}
	.st52{fill:#FBC275;}
	.st53{fill:#F9B977;}
	.st54{fill:#D1DD81;}
	.st55{fill:#FCCD72;}
	.st56{fill:#EFDF74;}
	.st57{fill:#E0DE7A;}
	.st58{fill:#FBC873;}
	.st59{fill:#FED670;}
</style>
<g>
	<rect x="340.4" y="356.3" class="st0" width="5.3" height="5.3"/>
	<rect x="333.8" y="356.3" class="st1" width="5.3" height="5.3"/>
	<polyline class="st2" points="332.4,356.3 327.1,356.3 327.1,361.6 332.4,361.6 332.4,356.3 	"/>
	<polyline class="st3" points="345.8,363 340.4,363 340.4,368.3 345.8,368.3 345.8,363 	"/>
	<polyline class="st4" points="339.1,363 333.8,363 333.8,368.3 339.1,368.3 339.1,363 	"/>
	<polyline class="st3" points="332.4,363 327.1,363 327.1,368.3 332.4,368.3 332.4,363 	"/>
	<rect x="340.4" y="369.6" class="st0" width="5.3" height="5.3"/>
	<polyline class="st5" points="339.1,369.6 333.8,369.6 333.8,375 339.1,375 339.1,369.6 	"/>
	<polyline class="st2" points="332.4,369.6 327.1,369.6 327.1,375 332.4,375 332.4,369.6 	"/>
	<rect x="307.1" y="356.3" class="st1" width="18.7" height="5.3"/>
	<polyline class="st3" points="325.8,363 307.1,363 307.1,368.3 325.8,368.3 325.8,363 	"/>
	<polyline class="st5" points="325.8,369.6 307.1,369.6 307.1,375 325.8,375 325.8,369.6 	"/>
	<path class="st6" d="M280.9,372.2l-3.8-3.8c-1.2,1.3-2.4,2.6-3.4,4.1l4.3,3.1C278.9,374.4,279.8,373.3,280.9,372.2z"/>
	<path class="st7" d="M271.7,402.8l-5.3,0.9c0.5,2.7,1.3,5.3,2.3,7.8l4.9-2.1C272.8,407.2,272.2,405,271.7,402.8z"/>
	<path class="st8" d="M284,369.4l-3.3-4.2c-0.9,0.7-1.8,1.5-2.6,2.3l3.8,3.8C282.5,370.6,283.2,370,284,369.4z"/>
	<path class="st9" d="M277.2,376.7l-4.3-3.1c-1,1.5-2,3.1-2.8,4.8l4.8,2.3C275.5,379.3,276.3,377.9,277.2,376.7z"/>
	<path class="st10" d="M274.3,381.9l-4.8-2.3c-0.9,1.8-1.6,3.8-2.1,5.7l5.2,1.4C272.9,385,273.5,383.4,274.3,381.9z"/>
	<path class="st11" d="M271.1,396.3c0-0.4,0-0.8,0-1.1l-5.3-0.3c0,0.5,0,0.9,0,1.4c0,2.1,0.2,4.1,0.5,6.1l5.3-0.9
		C271.2,399.8,271.1,398,271.1,396.3z"/>
	<path class="st12" d="M272.1,387.9l-5.2-1.4c-0.6,2.3-0.9,4.6-1.1,7l5.3,0.3C271.3,391.8,271.7,389.9,272.1,387.9z"/>
	<path class="st13" d="M287.7,366.7l-2.7-4.6c-1.1,0.7-2.3,1.5-3.3,2.3l3.3,4.2C285.9,367.9,286.8,367.3,287.7,366.7z"/>
	<path class="st14" d="M290.7,365.1l-2.2-4.8c-0.8,0.4-1.5,0.8-2.3,1.2l2.7,4.6C289.5,365.7,290.1,365.4,290.7,365.1z"/>
	<path class="st14" d="M294.1,363.7l-1.7-5.1c-0.9,0.3-1.8,0.7-2.7,1.1l2.2,4.8C292.6,364.2,293.3,363.9,294.1,363.7z"/>
	<path class="st15" d="M305.8,361.6v-5.3c-4.2,0-8.3,0.7-12.1,1.9l1.7,5.1C298.6,362.2,302.1,361.6,305.8,361.6z"/>
	<path class="st16" d="M274.2,410.6l-4.9,2.1c1.3,3,3,5.7,5,8.3l4.1-3.4C276.7,415.4,275.3,413.1,274.2,410.6z"/>
	<path class="st17" d="M295.1,429.3l-1.7,5c3.2,1,6.5,1.7,10,1.9l0.2-5.3C300.7,430.7,297.8,430.2,295.1,429.3z"/>
	<path class="st18" d="M286.5,425.1l-3.1,4.4c2.7,1.8,5.6,3.3,8.7,4.4l1.7-5C291.2,427.9,288.7,426.6,286.5,425.1z"/>
	<path class="st19" d="M305.8,431c-0.3,0-0.6,0-0.8,0l-0.2,5.3c0.4,0,0.7,0,1.1,0c3.3,0,6.5-0.4,9.6-1.2L314,430
		C311.4,430.6,308.6,431,305.8,431z"/>
	<path class="st20" d="M325.6,424.7l3,4.4c3.5-2.4,6.6-5.4,9.2-8.9l-4.3-3.1C331.3,420.1,328.6,422.6,325.6,424.7z"/>
	<path class="st21" d="M315.3,429.6l1.4,5.2c3.9-1.1,7.5-2.8,10.8-4.9l-3-4.4C321.7,427.3,318.6,428.7,315.3,429.6z"/>
	<path class="st22" d="M334.2,416.1l4.3,3.1c2.6-3.7,4.6-7.8,5.8-12.3l-5.2-1.3C338.1,409.4,336.5,412.9,334.2,416.1z"/>
	<path class="st23" d="M279.3,418.6l-4.1,3.4c2.1,2.5,4.5,4.8,7.2,6.7l3.1-4.4C283.1,422.7,281.1,420.8,279.3,418.6z"/>
	<path class="st24" d="M288.4,367.8c-0.9,0.5-1.8,1.1-2.6,1.8l3.3,4.2c0.6-0.5,1.3-0.9,2-1.4L288.4,367.8"/>
	<path class="st25" d="M291.3,366.3c-0.6,0.3-1.1,0.6-1.7,0.9l2.7,4.6c0.4-0.2,0.8-0.4,1.2-0.6L291.3,366.3"/>
	<path class="st26" d="M284.8,370.4c-0.7,0.6-1.4,1.2-2,1.8l3.8,3.8c0.5-0.5,1-0.9,1.6-1.4L284.8,370.4"/>
	<path class="st27" d="M275.5,382.4c-0.7,1.5-1.2,3-1.7,4.6l5.2,1.4c0.4-1.3,0.8-2.5,1.4-3.6L275.5,382.4"/>
	<path class="st28" d="M281.8,373.2c-1,1-1.9,2.1-2.7,3.2l4.3,3.1c0.7-0.9,1.4-1.7,2.2-2.5L281.8,373.2"/>
	<path class="st29" d="M278.3,377.4c-0.8,1.2-1.6,2.5-2.2,3.8l4.8,2.3c0.5-1,1.1-2,1.8-3L278.3,377.4"/>
	<path class="st30" d="M305.8,363c-3.5,0-6.9,0.5-10,1.5l1.7,5.1c2.6-0.8,5.4-1.3,8.3-1.3V363"/>
	<path class="st25" d="M294.5,364.9c-0.7,0.2-1.4,0.5-2,0.8l2.2,4.8c0.5-0.2,1-0.4,1.5-0.6L294.5,364.9"/>
	<path class="st31" d="M297.3,423l-1.7,5c2.6,0.8,5.3,1.4,8.1,1.5l0.2-5.3C301.6,424.1,299.4,423.6,297.3,423"/>
	<path class="st32" d="M312.3,423.5c-2.1,0.5-4.3,0.8-6.5,0.8c-0.2,0-0.4,0-0.6,0l-0.2,5.3c0.3,0,0.5,0,0.8,0c2.7,0,5.4-0.3,7.9-0.9
		L312.3,423.5"/>
	<path class="st33" d="M320.8,419.9c-2.2,1.4-4.6,2.5-7.2,3.3l1.4,5.2c3.2-0.9,6.1-2.3,8.8-4L320.8,419.9"/>
	<path class="st34" d="M332.7,403.9c-0.8,3-2.2,5.8-3.9,8.3l4.3,3.1c2.1-3,3.7-6.4,4.7-10.1L332.7,403.9"/>
	<path class="st35" d="M290.3,419.6l-3.1,4.4c2.2,1.5,4.5,2.7,7.1,3.6l1.7-5C294,421.8,292.1,420.8,290.3,419.6"/>
	<path class="st36" d="M280.3,407.9l-4.9,2.1c1.1,2.4,2.5,4.6,4.1,6.7l4.1-3.4C282.3,411.7,281.2,409.9,280.3,407.9"/>
	<path class="st37" d="M278.3,401.7l-5.3,0.9c0.4,2.2,1,4.3,1.8,6.3l4.9-2.1C279.1,405.1,278.6,403.4,278.3,401.7"/>
	<path class="st38" d="M272.5,395.2c0,0.4,0,0.7,0,1.1c0,1.7,0.1,3.3,0.4,4.9l5.3-0.9c-0.2-1.3-0.3-2.7-0.3-4c0-0.3,0-0.5,0-0.8
		L272.5,395.2"/>
	<path class="st39" d="M273.4,388.3c-0.4,1.8-0.7,3.7-0.9,5.6l5.3,0.3c0.1-1.5,0.4-3,0.7-4.5L273.4,388.3"/>
	<path class="st40" d="M284.4,414.4l-4.1,3.4c1.7,2,3.7,3.9,5.8,5.4l3.1-4.4C287.4,417.6,285.8,416.1,284.4,414.4"/>
	<path class="st41" d="M328.1,413.2c-1.7,2.3-3.8,4.3-6.2,5.9l3,4.4c2.9-2,5.4-4.5,7.5-7.2L328.1,413.2"/>
	<path class="st42" d="M289.6,410.2l-4.2,3.4c1.3,1.6,2.8,3,4.5,4.2l3.1-4.4C291.8,412.5,290.6,411.4,289.6,410.2"/>
	<path class="st43" d="M294.1,414.1l-3.1,4.4c1.7,1.1,3.5,2,5.4,2.8l1.7-5C296.8,415.7,295.4,415,294.1,414.1"/>
	<path class="st44" d="M284.9,400.5l-5.3,0.9c0.3,1.6,0.8,3.2,1.4,4.8l4.9-2.1C285.5,402.9,285.1,401.8,284.9,400.5"/>
	<path class="st45" d="M299.5,416.7l-1.7,5c2,0.6,4.1,1,6.2,1.2l0.2-5.3C302.6,417.4,301,417.1,299.5,416.7"/>
	<path class="st46" d="M286.4,405.3l-4.9,2.1c0.8,1.8,1.9,3.6,3.1,5.1l4.1-3.4C287.9,408,287.1,406.7,286.4,405.3"/>
	<path class="st47" d="M279.1,395.6c0,0.2,0,0.5,0,0.7c0,1.3,0.1,2.6,0.3,3.8l5.3-0.9c-0.1-1-0.2-1.9-0.2-2.9c0-0.1,0-0.3,0-0.4
		L279.1,395.6"/>
	<path class="st0" d="M340.4,396.3c0,2.7-0.3,5.4-0.9,8l5.2,1.3c0.4-1.8,0.7-3.6,0.9-5.5c0.1-1.3,0.2-2.5,0.2-3.8v-20h-5.3V396.3z"
		/>
	<path class="st4" d="M339.1,376.3h-5.3v20c0,2.2-0.2,4.3-0.7,6.3l5.2,1.3c0.3-1.2,0.5-2.5,0.7-3.8c0.1-1.3,0.2-2.5,0.2-3.8V376.3"
		/>
	<path class="st2" d="M327.1,376.3v20c0,1.6-0.2,3.2-0.5,4.7l5.2,1.3c0.2-0.7,0.3-1.4,0.4-2.2c0.2-1.3,0.3-2.5,0.3-3.8v-20H327.1z"
		/>
	<path class="st48" d="M326.3,402.2c-0.6,2.2-1.6,4.2-2.8,6l4.3,3.1c1.6-2.4,2.9-5,3.7-7.8L326.3,402.2"/>
	<path class="st49" d="M310.6,417.1c-1.5,0.4-3.2,0.6-4.8,0.6c-0.1,0-0.2,0-0.3,0l-0.2,5.3c0.2,0,0.3,0,0.5,0c2.1,0,4.2-0.3,6.2-0.7
		L310.6,417.1"/>
	<path class="st50" d="M322.7,409.3c-1.3,1.6-2.8,3.1-4.5,4.3l3,4.4c2.2-1.6,4.2-3.5,5.8-5.6L322.7,409.3"/>
	<path class="st51" d="M317.1,414.4c-1.6,1-3.4,1.8-5.2,2.4l1.4,5.2c2.4-0.7,4.7-1.8,6.8-3.1L317.1,414.4"/>
	<path class="st52" d="M294,372.3c-0.4,0.2-0.7,0.4-1.1,0.6l2.7,4.6c0.2-0.1,0.4-0.2,0.7-0.3L294,372.3"/>
	<path class="st52" d="M296.6,371.2c-0.5,0.2-0.9,0.4-1.4,0.6l2.2,4.8c0.3-0.1,0.6-0.2,0.9-0.3L296.6,371.2"/>
	<path class="st53" d="M305.8,369.6c-2.7,0-5.4,0.4-7.9,1.2l1.7,5.1c2-0.6,4-0.9,6.2-0.9V369.6"/>
	<path class="st54" d="M279.9,390c-0.3,1.4-0.6,2.8-0.7,4.2l5.3,0.3c0.1-1.1,0.3-2.1,0.5-3.1L279.9,390"/>
	<path class="st55" d="M288.9,375.7c-0.5,0.4-1,0.8-1.4,1.3l3.8,3.8c0.3-0.3,0.6-0.6,0.9-0.8L288.9,375.7"/>
	<path class="st56" d="M283.7,381.3c-0.6,0.9-1.2,1.8-1.7,2.8l4.8,2.3c0.4-0.7,0.8-1.4,1.2-2L283.7,381.3"/>
	<path class="st57" d="M281.5,385.3c-0.5,1.1-0.9,2.2-1.3,3.4l5.2,1.4c0.3-0.9,0.6-1.7,0.9-2.5L281.5,385.3"/>
	<path class="st58" d="M291.8,373.6c-0.6,0.4-1.3,0.8-1.9,1.3l3.3,4.2c0.4-0.3,0.8-0.6,1.3-0.9L291.8,373.6"/>
	<path class="st59" d="M286.5,377.9c-0.7,0.7-1.4,1.5-2,2.4l4.3,3.1c0.4-0.6,0.9-1.1,1.4-1.7L286.5,377.9"/>
</g>
</svg>
