<?xml version="1.0" encoding="UTF-8"?> <!-- Generator: Adobe Illustrator 24.3.0, SVG Export Plug-In . SVG Version: 6.00 Build 0) --> <svg xmlns="http://www.w3.org/2000/svg" xmlns:xlink="http://www.w3.org/1999/xlink" version="1.1" id="Layer_1" x="0px" y="0px" viewBox="0 0 864 198.1" style="enable-background:new 0 0 864 198.1;" xml:space="preserve"> <style type="text/css"> .st0{fill:#005A9A;} .st1{fill:#35A8E0;} .st2{fill:#93C01F;} .st3{fill:#F2E500;} .st4{fill:#636362;} </style> <g> <path id="fullLogo" class="st0" d="M3.7,118.9c0,0-7.2,13.8-1.5,39.4c3.4,15.3,14.4,20.6,14.4,20.6S21.2,132.1,3.7,118.9z"></path> <path id="fullLogo-2" class="st1" d="M76.8,190.6c0,0-13.6,7.4-39.3,2.2c-15.4-3.1-20.8-14.1-20.8-14.1S63.2,173.4,76.8,190.6z"></path> <path id="fullLogo-3" class="st2" d="M162.7,68l26.7-7.2c5-19.1,6.5-39,4.2-58.6l-88.9,88.3l-88.1,88.2 c48.4,5.7,96.7-11.1,131.1-45.6c13.7-13.7,24.9-29.7,32.9-47.4L162.7,68z"></path> <path id="fullLogo-4" class="st3" d="M151.1,2.9l-5.2,19.4l-15-15C56.3,29.1,8,101.4,16.6,178.8l177-176.6 C179.5,0.5,165.2,0.8,151.1,2.9z"></path> <path id="fullLogo-5" class="st1" d="M113.7,81.9l-97.1,96.9C11,130.4,28,82.1,62.6,47.8C98.6,11.9,116.7,36.4,113.7,81.9z"></path> <path id="fullLogo-6" class="st0" d="M113.7,81.9l-97.1,96.9c48.4,5.7,96.7-11.1,131.1-45.6C183.7,97.2,159.2,79.1,113.7,81.9z"></path> <path id="fullLogo-7" class="st4" d="M256.2,1.2h34.3v9.2h-22.4v17.7h19.5v9.1h-19.5v27.9h-11.9V1.2z"></path> <path id="fullLogo-8" class="st4" d="M351.4,56.6c-1.9,3.2-4.7,5.7-8.1,7.2c-3.8,1.7-8,2.6-12.2,2.5c-3.9,0.1-7.9-0.5-11.6-1.7 c-2.8-1-5.4-2.5-7.5-4.5c-2-2.1-3.6-4.5-4.6-7.2c-2-5.1-3.1-11.7-3.1-19.7c-0.1-4.4,0.3-8.7,1.1-13c0.7-3.6,2.1-7.1,3.9-10.3 C313,3.3,320,0,330.3,0c11.7,0,19.4,4.5,23.1,13.6c2,5.1,3.1,11.6,3.1,19.6c0.1,4.4-0.3,8.8-1.1,13.1 C354.6,49.9,353.3,53.4,351.4,56.6z M330.3,56.7c5.3,0,9-2.1,11.1-6.2c2.1-4.1,3.2-9.9,3.1-17.3c0-7.4-1-13.2-3.1-17.3 c-2.1-4.1-5.8-6.2-11.1-6.2c-5.6,0-9.4,2.3-11.5,6.8c-1.8,4.1-2.7,9.7-2.7,16.7c0,11.7,2.4,18.9,7.1,21.8 C325.4,56.2,327.8,56.8,330.3,56.7z"></path> <path id="fullLogo-9" class="st4" d="M414,1.2h11.9v63.9h-12.6L388,21.7v43.4h-11.9V1.2h12.6L414,44.7L414,1.2z"></path> <path id="fullLogo-10" class="st4" d="M448.9,1.2h21.3c10.3,0,17.3,3.2,21,9.4c1.8,3.1,3.1,6.4,3.8,9.9c0.7,3.9,1.1,7.9,1,11.9 c0,3.7-0.2,7.3-0.6,11c-0.4,3-1.2,5.9-2.3,8.7c-1,2.6-2.5,5-4.5,7c-4.1,4-10.3,6-18.4,6h-21.3V1.2z M468.6,10.4h-7.8v45.5h7.8 c6.2,0,10.5-2.2,12.7-6.7c1.9-3.9,2.8-9.2,2.8-16c0-6.8-0.9-12.1-2.8-16C479.1,12.7,474.9,10.4,468.6,10.4L468.6,10.4z"></path> <path id="fullLogo-11" class="st4" d="M528.7,1.2h15.5l19.6,63.9h-11.5l-5.4-17.7h-21l-5.3,17.7H509L528.7,1.2z M536.4,12.5 l-7.8,25.9h15.6L536.4,12.5z"></path> <path id="fullLogo-12" class="st4" d="M567.8,10.2v-9h45.4v9h-16.7v54.9h-11.9V10.2H567.8z"></path> <path id="fullLogo-13" class="st4" d="M627.8,1.2h11.9v63.9h-11.9V1.2z"></path> <path id="fullLogo-14" class="st4" d="M706.6,56.6c-1.9,3.2-4.7,5.7-8.1,7.2c-3.8,1.7-8,2.6-12.2,2.5c-3.9,0.1-7.9-0.5-11.6-1.7 c-2.8-1-5.4-2.5-7.5-4.5c-2-2.1-3.6-4.5-4.6-7.2c-2-5.1-3.1-11.7-3.1-19.7c-0.1-4.4,0.3-8.7,1.1-13c0.7-3.6,2.1-7.1,3.9-10.3 c3.7-6.5,10.7-9.8,21-9.8c11.7,0,19.4,4.5,23.1,13.6c2,5.1,3.1,11.6,3.1,19.6c0.1,4.4-0.3,8.8-1.1,13.1 C709.8,49.9,708.5,53.4,706.6,56.6z M685.5,56.7c5.3,0,9-2.1,11.1-6.2c2.1-4.1,3.2-9.9,3.2-17.3c0-7.4-1.1-13.2-3.2-17.3 c-2.1-4.1-5.8-6.2-11.1-6.2c-5.6,0-9.4,2.3-11.5,6.8c-1.8,4.1-2.7,9.7-2.7,16.7c0,11.7,2.4,18.9,7.1,21.8 C680.6,56.2,683,56.8,685.5,56.7L685.5,56.7z"></path> <path id="fullLogo-15" class="st4" d="M769.2,1.2h11.9v63.9h-12.6l-25.3-43.4v43.4h-11.9V1.2h12.6l25.3,43.5L769.2,1.2z"></path> <path id="fullLogo-16" class="st4" d="M585,180.2V115h12.1v55.8h22.2v9.4L585,180.2z"></path> <path id="fullLogo-17" class="st4" d="M634.8,115h36.8v9.4H647v18h22.4v9.3H647v19.1h26.4v9.4h-38.6V115z M646.2,108.5l-2.2-7.3 l19.9-6.9l2.9,9.7L646.2,108.5z"></path> <path id="fullLogo-18" class="st4" d="M714.3,171.7c8.6,0,12.9-4.6,13-13.9v-3h-10v-7.8h20.5v33.3h-6.1l-2.1-6.5 c-3.8,5.2-9.2,7.8-16.1,7.8c-9.8,0-16.5-3-20.2-9.1c-2-3.2-3.3-6.8-4-10.5c-0.8-4.7-1.2-9.5-1.2-14.3c-0.1-4.8,0.3-9.6,1.2-14.4 c0.7-3.7,2.1-7.2,4.2-10.4c3.9-6,10.9-8.9,21.1-8.9c7.3,0,12.6,1.6,15.8,4.9c3.2,3.3,5.2,8.1,5.9,14.5l-9.8,1.5 c-0.4-3.6-1.5-6.3-3.3-8.2c-1.8-1.9-4.7-2.9-8.6-2.9c-5.6,0-9.4,1.8-11.3,5.5c-2,3.7-2.9,9.8-2.9,18.3c0,8.5,1,14.7,2.9,18.5 C705.2,169.8,708.8,171.7,714.3,171.7z"></path> <path id="fullLogo-19" class="st4" d="M760.4,115h36.8v9.4h-24.7v18h22.4v9.3h-22.4v19.1H799v9.4h-38.6V115z"></path> <path id="fullLogo-20" class="st4" d="M817.1,115h22.8c8.3,0,14,2.2,17.2,6.5c2.8,3.8,4.2,8.5,4.1,13.2c0,9-3.5,14.9-10.5,17.9 c1.4,1.6,2.6,3.4,3.4,5.4l9.9,22.2h-13l-9.3-21.2c-0.6-1.4-1.5-2.7-2.7-3.7c-1.3-0.7-2.9-1.1-4.4-1h-5.4v25.8h-12.1V115z M829.2,145h9.2c3.6,0,6.2-1,8-2.9c3.5-4.3,3.5-10.5,0-14.7c-1.8-2-4.4-2.9-8-2.9h-9.2V145z"></path> <path id="fullLogo-21" class="st0" d="M242.6,177c1.5,0,3-0.1,4.5-0.4c1.1-0.2,2.1-0.8,2.9-1.5c0.9-0.8,1.5-1.8,2-2.9 c0.7-1.5,1.2-3.1,1.6-4.8l9.5-36c0.4-1.4,0.7-2.6,0.9-3.7c0.2-0.9,0.3-1.8,0.3-2.7c0-1.8-0.6-3-1.9-3.5c-2-0.7-4.2-0.9-6.3-0.8 l0.9-3.3h44.6v16.5h-3.1c-0.6-2.2-1.4-4.4-2.4-6.4c-0.7-1.5-1.8-2.8-3-3.9c-1.1-0.9-2.4-1.6-3.8-2c-1.5-0.4-3.1-0.6-4.6-0.6H274 l-6.4,24.3h5.6c1.3,0,2.5-0.1,3.8-0.4c1-0.3,2-0.8,2.8-1.4c0.9-0.8,1.7-1.8,2.4-2.8c0.9-1.5,1.7-3.1,2.4-4.7h3l-5.7,25.8h-3.3 c0.2-2,0.2-3.6,0.2-5.1c0-2.7-0.4-4.7-1.2-6c-0.8-1.3-2.3-1.9-4.5-1.9h-6.5l-4.7,17.6c-0.4,1.5-0.7,3-0.7,4.6 c-0.1,1.7,0.7,3.4,2.2,4.4c1.5,1,4.1,1.4,7.8,1.4l-0.9,3.5h-28.6L242.6,177z"></path> <path id="fullLogo-22" class="st0" d="M335.7,136.9h6.8l-4.7,12.5c-0.8,2.1-1.5,4.3-2.2,6.6c-0.7,2.3-1.4,4.6-2,6.8 c-0.6,2.2-1,4.2-1.3,6c-0.3,1.3-0.4,2.7-0.5,4c0,1.6,0.5,2.4,1.6,2.4c0.8,0,1.9-0.8,3.3-2.4c1.7-1.9,3.4-4,4.9-6.1l2.1,1.7 c-1.9,3.5-4.4,6.7-7.4,9.4c-2.6,2.2-5.2,3.3-7.6,3.3c-1.1,0.1-2.2-0.5-2.9-1.4c-0.8-1.4-1.2-3.1-1-4.7c0-0.5,0-1.1,0-1.7 s0.1-1.5,0.2-2.6l-0.3-0.1c-0.8,1.5-1.8,2.9-2.9,4.2c-1.1,1.2-2.3,2.4-3.6,3.3c-1.3,0.9-2.6,1.7-4.1,2.2c-1.3,0.5-2.7,0.8-4.2,0.8 c-2.6,0.1-5-1.1-6.5-3.1c-1.6-2.1-2.3-5-2.3-8.7c0-4,0.8-7.9,2.4-11.5c1.5-3.8,3.6-7.4,6.1-10.7c2.3-3,5.2-5.7,8.3-7.8 c2.6-1.9,5.8-3,9-3.1c1.6-0.1,3.1,0.4,4.4,1.3c1.3,1.1,2.3,2.5,2.8,4.1L335.7,136.9z M327.2,140.4c-2.1,0-4.2,1-6.4,2.9 c-2.3,2.1-4.4,4.5-6,7.2c-1.8,2.9-3.3,6-4.4,9.2c-1.1,2.9-1.7,6.1-1.7,9.2c-0.1,1.7,0.3,3.3,1.2,4.7c0.7,1.1,2,1.8,3.4,1.8 c1.4-0.1,2.8-0.6,3.9-1.5c1.5-1.1,2.8-2.5,4-4c1.4-1.8,2.6-3.7,3.6-5.7c1.1-2.1,2.2-4.3,3-6.6c0.8-2.2,1.5-4.4,2-6.7 c0.5-1.9,0.7-3.9,0.7-5.9c0.1-1.2-0.2-2.4-0.9-3.3C329.1,140.8,328.2,140.3,327.2,140.4L327.2,140.4z"></path> <path id="fullLogo-23" class="st0" d="M405.8,153c0.7-2,1.3-3.6,1.7-4.8c0.4-1.2,0.7-2.1,0.9-2.8c0.2-0.5,0.3-1.1,0.4-1.6 c0.1-0.4,0.1-0.7,0.1-1.1c0-1.6-0.5-2.4-1.6-2.4c-1.5,0-3.2,1-5.2,3c-2.5,2.6-4.7,5.5-6.5,8.6c-0.8,1.3-1.6,2.6-2.3,4 c-0.7,1.3-1.5,3-2.3,5c-0.8,2-1.8,4.5-2.9,7.6c-1.1,3-2.5,7-4.2,11.8h-7.7l5.4-16.4c1.1-3.5,2.1-6.4,2.9-8.8 c0.8-2.4,1.4-4.3,1.8-5.9c0.4-1.6,0.7-2.8,0.9-3.8c0.2-0.8,0.3-1.5,0.3-2.3c0-1.8-0.7-2.7-2-2.7c-1.5,0.2-2.9,0.8-3.9,1.9 c-1.7,1.5-3.3,3.1-4.7,4.9c-1.7,2.2-3.2,4.4-4.5,6.8c-1.4,2.5-2.6,5.1-3.6,7.7l-6.9,18.6h-7.2l6-18.7c1-3.2,1.9-5.8,2.5-8 c0.7-2.2,1.2-3.9,1.6-5.3c0.4-1.4,0.7-2.5,0.8-3.3c0.1-0.7,0.2-1.4,0.2-2c0-1.5-0.5-2.3-1.4-2.3c-0.8,0.1-1.5,0.5-2.1,1.1 c-0.9,0.9-1.7,1.8-2.4,2.9c-0.9,1.4-1.7,2.8-2.4,4.2c-0.8,1.6-1.5,3.3-2.1,5l-2.5-1.2c1.9-5.6,4-9.8,6.4-12.4c2-2.5,5-3.9,8.1-4 c1.4-0.1,2.8,0.4,3.7,1.5c0.7,1,1.1,2.6,1.1,4.9c0,2.6-0.5,5.1-1.4,7.5l0.2,0.2c5.1-9.4,10.4-14.1,16.1-14.1c1.9-0.1,3.7,0.6,5,1.9 c1.3,1.5,1.9,3.4,1.8,5.4c0,0.9-0.1,1.8-0.3,2.6c-0.2,1-0.6,2.4-1.1,4.3l0.2,0.2c1.3-2.3,2.8-4.5,4.4-6.7c1.2-1.6,2.6-3.1,4-4.5 c1.2-1.1,2.5-1.9,4-2.5c1.3-0.5,2.7-0.8,4.1-0.8c1.8-0.1,3.5,0.5,4.8,1.7c1.1,1.1,1.6,2.9,1.6,5.4c0,0.8-0.1,1.7-0.2,2.5 c-0.2,0.9-0.4,2-0.7,3.2c-0.3,1.2-0.7,2.6-1.3,4.2c-0.5,1.6-1.1,3.5-1.8,5.7c-0.9,2.8-1.7,5-2.2,6.7c-0.5,1.7-1,3-1.2,4 c-0.3,1-0.5,1.7-0.5,2.2c-0.1,0.5-0.1,1-0.1,1.5c0,1,0.3,1.6,0.8,1.6c0.8,0,2-0.8,3.7-2.3c2.3-2.3,4.4-4.7,6.4-7.2l2.1,1.1 c-1,1.9-2.2,3.7-3.6,5.4c-1.4,1.7-2.9,3.3-4.5,4.7c-1.4,1.3-3,2.4-4.7,3.4c-1.2,0.8-2.6,1.2-4,1.3c-1.3,0-2.5-0.6-3.2-1.8 c-0.9-1.4-1.3-3.1-1.2-4.7c0-0.7,0.1-1.5,0.2-2.2c0.2-1.2,0.5-2.4,0.9-3.5c0.5-1.5,1.1-3.5,2-6S404.4,157.1,405.8,153z"></path> <path id="fullLogo-24" class="st0" d="M438.3,153.3c0.8-2.1,1.3-3.8,1.6-5.1c0.3-1,0.4-2.1,0.5-3.1c0.1-0.5-0.1-1.1-0.4-1.5 c-0.2-0.2-0.5-0.4-0.8-0.4c-0.7,0.1-1.4,0.4-2,0.9c-0.8,0.6-1.5,1.3-2.1,2c-0.7,0.7-1.3,1.5-1.9,2.3c-0.4,0.6-0.8,1.2-1.1,1.8 l-2.4-1.5c0.8-1.4,1.7-2.7,2.7-4c1.2-1.5,2.5-2.9,4-4.1c1.4-1.2,2.9-2.3,4.6-3.1c1.4-0.8,2.9-1.2,4.5-1.3c1.1-0.1,2.3,0.3,3.1,1.2 c0.7,0.8,1,2.2,1,4.3c-0.1,2.2-0.6,4.3-1.4,6.4c-1,2.7-2.2,6.1-3.7,10.3l-3,8.3c-0.1,0.3-0.3,0.7-0.4,1.3c-0.2,0.6-0.4,1.2-0.6,1.8 c-0.2,0.6-0.4,1.2-0.5,1.8c-0.1,0.5-0.2,1-0.2,1.5c0,0.5,0.1,0.9,0.4,1.3c0.3,0.4,0.8,0.6,1.3,0.6c0.9,0,1.8-0.4,2.5-1 c0.9-0.7,1.8-1.5,2.5-2.4c0.8-0.9,1.5-1.8,2.2-2.8c0.7-1,1.1-1.7,1.5-2.2l2.5,1.4c-0.8,1.5-1.7,3-2.7,4.3c-1.1,1.6-2.4,3-3.8,4.4 c-1.4,1.3-3,2.4-4.7,3.4c-1.6,0.9-3.4,1.3-5.2,1.3c-1.3,0.1-2.6-0.3-3.6-1.2c-0.9-1.2-1.3-2.6-1.2-4.1c0-1.7,0.3-3.4,0.8-5.1 c0.5-1.8,1.3-4.1,2.2-6.9L438.3,153.3z M450.3,122.7c-1.3,0-2.6-0.5-3.6-1.4c-1-0.9-1.6-2.2-1.5-3.6c0-1.4,0.5-2.8,1.5-3.8 c0.9-1,2.2-1.6,3.6-1.6c1.4,0,2.8,0.5,3.8,1.6c1,1,1.5,2.3,1.5,3.7c0,1.4-0.5,2.7-1.6,3.6C453,122.2,451.7,122.7,450.3,122.7z"></path> <path id="fullLogo-25" class="st0" d="M475.6,123.8c0.3-1,0.5-2,0.8-3c0.2-0.7,0.4-1.5,0.4-2.2c0-1.9-2.1-2.9-6.2-2.9l0.7-2.5 l15-0.7l-14.6,53.7c-0.4,1.5-0.8,2.8-1,3.9c-0.2,0.9-0.3,1.9-0.3,2.8c0,0.5,0.1,0.9,0.4,1.3c0.3,0.4,0.8,0.6,1.3,0.6 c1-0.1,2-0.4,2.8-1.1c1-0.8,2-1.7,2.8-2.6c0.9-1,1.7-2,2.4-3.1c0.7-1.1,1.2-1.9,1.6-2.5l2.5,1.4c-0.8,1.9-1.9,3.7-3.2,5.4 c-1.2,1.6-2.6,3.2-4.2,4.5c-1.4,1.2-2.8,2.3-4.5,3.1c-1.3,0.7-2.7,1.1-4.1,1.2c-1.5,0.1-3-0.3-4.2-1.2c-0.9-0.8-1.3-2.2-1.3-4.1 c0-1.5,0.2-3,0.5-4.4c0.3-1.9,0.9-4.4,1.7-7.6L475.6,123.8z"></path> <path id="fullLogo-26" class="st0" d="M506.1,123.8c0.3-1,0.5-2,0.8-3c0.2-0.7,0.4-1.5,0.4-2.2c0-1.9-2.1-2.9-6.2-2.9l0.7-2.5 l15-0.7l-14.6,53.7c-0.4,1.5-0.8,2.8-1,3.9c-0.2,0.9-0.3,1.9-0.3,2.8c0,0.5,0.1,0.9,0.4,1.3c0.3,0.4,0.8,0.6,1.3,0.6 c1-0.1,2-0.4,2.8-1.1c1-0.8,2-1.7,2.8-2.6c0.9-1,1.7-2,2.4-3.1c0.7-1.1,1.2-1.9,1.6-2.5l2.5,1.4c-0.8,1.9-1.9,3.7-3.2,5.4 c-1.2,1.6-2.6,3.2-4.2,4.5c-1.4,1.2-2.8,2.3-4.5,3.1c-1.3,0.7-2.7,1.1-4.1,1.2c-1.5,0.1-3-0.3-4.2-1.2c-0.9-0.8-1.3-2.2-1.3-4.1 c0-1.5,0.2-3,0.5-4.4c0.3-1.9,0.9-4.4,1.7-7.6L506.1,123.8z"></path> <path id="fullLogo-27" class="st0" d="M551.9,169.4c-4.7,7.8-10.6,11.7-17.5,11.7c-3.8,0-6.6-1.2-8.7-3.5c-2-2.3-3-5.6-3-9.9 c0-3.9,0.8-7.7,2.3-11.3c1.5-3.7,3.6-7.1,6.1-10.2c2.4-2.9,5.2-5.4,8.4-7.4c2.8-1.8,6-2.8,9.3-2.8c2.3-0.1,4.6,0.6,6.4,2 c1.6,1.2,2.5,3.1,2.5,5.1c-0.1,2.1-0.8,4.2-2.1,5.9c-1.6,2.2-3.5,4.1-5.8,5.7c-2.7,1.9-5.5,3.6-8.5,4.9c-3.3,1.5-6.8,2.6-10.3,3.4 c-0.1,0.8-0.2,1.5-0.2,2.2c-0.1,0.7-0.1,1.5-0.1,2.2c0,5.9,2.1,8.9,6.3,8.9c2.3-0.1,4.5-0.9,6.3-2.4c2.4-1.8,4.4-4,6-6.5 L551.9,169.4z M547.2,140c-1.6,0.1-3.1,0.6-4.4,1.6c-1.7,1.2-3.1,2.7-4.4,4.4c-1.5,2-2.7,4-3.8,6.3c-1.1,2.3-2.1,4.8-2.8,7.3 c2.5-0.7,5-1.6,7.3-2.8c2.1-1,4-2.3,5.8-3.9c1.5-1.3,2.8-2.9,3.8-4.6c0.9-1.5,1.4-3.1,1.4-4.9C550.1,141.1,549.2,140,547.2,140z"></path> </g> </svg> 